# xmcd CD database file
#
# Track frame offsets:
#	150
#	12923
#	27103
#	42747
#	59412
#	73039
#	87324
#	100084
#	115956
#	129935
#	144807
#	164564
#	178059
#	191904
#
# Disc length: 2807 seconds
#
# Revision: 0
# Processed by: cddbd v1.5.2PL0 Copyright (c) Steve Scherf et al.
# Submitted via: CDex 1.50
#
DISCID=c40af50e
DTITLE=Various Artist - Mr. Music Country 03-07
DYEAR=2007
DGENRE=Country
TTITLE0=Joey Allcorn - 50 Years Too Late
TTITLE1=Lori Kline - Can't Stand The Moonlight
TTITLE2=Billy Joe Shaver - Drinkin' Back
TTITLE3=Mike Clifford - Senorita
TTITLE4=Liz Meyer - The Only Wind That Blows
TTITLE5=Johnny Bush and Justin Trevino - I Threw Away The Rose
TTITLE6=Bobby Flores - He'll Let You Live A Little
TTITLE7=Tommy Townsend - The Picker
TTITLE8=Jim Byrom - Whiskey Uniform
TTITLE9=Paul Craft - The Drinkin's Got Me Down
TTITLE10=Amie Comeaux - A Single Crimson Rose
TTITLE11=Little Jimmy Dickens - The Picture
TTITLE12=Tracy Lawrence - You're Why God Made Me
TTITLE13=Christine Albert and Chris Gage - Elisabeth
EXTD=YEAR: 2007
EXTT0=
EXTT1=
EXTT2=
EXTT3=
EXTT4=
EXTT5=
EXTT6=
EXTT7=
EXTT8=
EXTT9=
EXTT10=
EXTT11=
EXTT12=
EXTT13=
PLAYORDER=
